<?xml version="1.0" standalone="no"?><!DOCTYPE svg PUBLIC "-//W3C//DTD SVG 1.1//EN" "http://www.w3.org/Graphics/SVG/1.1/DTD/svg11.dtd"><svg t="1588837795991" class="icon" viewBox="0 0 1024 1024" version="1.1" xmlns="http://www.w3.org/2000/svg" p-id="3519" xmlns:xlink="http://www.w3.org/1999/xlink" width="200" height="200"><defs><style type="text/css"></style></defs><path d="M758.709915 948.110589 262.122953 948.110589c-14.479783 0-26.431999-11.31265-27.216875-25.76685l-39.261189-719.114105c-0.412392-7.479345 2.275833-14.800078 7.426133-20.22974 5.1503-5.442966 12.297071-8.518001 19.790742-8.518001l574.498426 0c7.479345 0 14.640442 3.074012 19.777439 8.504698 5.1503 5.429663 7.838525 12.737092 7.439436 20.216437l-38.649252 719.114105C785.155217 936.784636 773.190721 948.110589 758.709915 948.110589zM287.929712 893.597021l444.947861 0 35.721573-664.600537L251.649414 228.996484 287.929712 893.597021z" p-id="3520"></path><path d="M903.56607 228.996484 805.438169 228.996484c-15.052834 0-27.256784-12.20395-27.256784-27.256784s12.20395-27.256784 27.256784-27.256784l98.127901 0c15.052834 0 27.256784 12.20395 27.256784 27.256784S918.618904 228.996484 903.56607 228.996484z" p-id="3521"></path><path d="M215.848023 228.996484l-99.152231 0c-15.052834 0-27.256784-12.20395-27.256784-27.256784s12.20395-27.256784 27.256784-27.256784l99.152231 0c15.052834 0 27.256784 12.20395 27.256784 27.256784S230.899834 228.996484 215.848023 228.996484z" p-id="3522"></path><path d="M633.5391 222.022653c-15.052834 0-27.256784-12.20395-27.256784-27.256784L606.282317 130.402979 413.992849 130.402979l0 64.36289c0 15.052834-12.20395 27.256784-27.256784 27.256784s-27.256784-12.20395-27.256784-27.256784L359.479281 103.146195c0-15.052834 12.20395-27.256784 27.256784-27.256784l246.803036 0c15.052834 0 27.256784 12.20395 27.256784 27.256784l0 91.619674C660.795884 209.81768 648.590911 222.022653 633.5391 222.022653z" p-id="3523"></path><path d="M380.241141 842.49004c-14.373359 0-26.39209-11.246135-27.190269-25.765827l-27.576055-505.198084c-0.824785-15.039531 10.700713-27.882024 25.725918-28.707832 14.706957-0.997724 27.868721 10.700713 28.707832 25.725918l27.576055 505.198084c0.824785 15.039531-10.700713 27.882024-25.725918 28.707832C381.252167 842.476737 380.746654 842.49004 380.241141 842.49004z" p-id="3524"></path><path d="M639.08849 842.49004c-0.505513 0-1.011027-0.013303-1.517563-0.039909-15.026228-0.824785-26.551726-13.668301-25.725918-28.707832l27.576055-505.198084c0.824785-15.026228 13.947663-26.684756 28.707832-25.725918 15.026228 0.824785 26.551726 13.668301 25.725918 28.707832L666.278759 816.724213C665.48058 831.243905 653.462872 842.49004 639.08849 842.49004z" p-id="3525"></path><path d="M510.137583 842.49004c-15.052834 0-27.256784-12.20395-27.256784-27.256784L482.880799 310.035172c0-15.052834 12.20395-27.256784 27.256784-27.256784 15.052834 0 27.256784 12.20395 27.256784 27.256784l0 505.198084C537.394367 830.28609 525.189394 842.49004 510.137583 842.49004z" p-id="3526"></path></svg>