<?xml version="1.0" standalone="no"?><!DOCTYPE svg PUBLIC "-//W3C//DTD SVG 1.1//EN" "http://www.w3.org/Graphics/SVG/1.1/DTD/svg11.dtd"><svg t="1588837583121" class="icon" viewBox="0 0 1024 1024" version="1.1" xmlns="http://www.w3.org/2000/svg" p-id="1411" xmlns:xlink="http://www.w3.org/1999/xlink" width="200" height="200"><defs><style type="text/css"></style></defs><path d="M1013.76 754.87232c0 126.77632-102.77376 229.54496-229.54496 229.54496s-229.54496-102.77376-229.54496-229.54496 102.77376-229.54496 229.54496-229.54496S1013.76 628.096 1013.76 754.87232z m-264.12032-34.39104h-83.51232c-36.89984 2.176-36.21888 34.39104-36.21888 34.39104s0 32.42496 36.21888 34.39104H899.03616c36.21888-2.06848 36.21888-34.39104 36.21888-34.39104s0-32.10752-36.21888-34.39104h-149.39648z" fill="" p-id="1412"></path><path d="M725.97504 473.216h-159.11936c32.35328-46.5408 53.92384-107.84768 53.92384-175.95904v-15.89248c69.81632-12.48768 115.22048-32.35328 115.22048-52.21888 0-21.56544-50.51392-41.43616-127.70816-53.92384-3.4048-18.16576-55.62368-165.1712-116.92032-165.1712-27.24352 0-48.8192 14.18752-63.00672 35.75808 0 10.78784-10.78272 21.56544-24.97536 21.56544-12.48768 0-23.2704-9.08288-24.97024-19.8656-12.48768-21.56544-35.7632-38.03136-63.00672-38.03136-59.5968 0-115.2256 135.08608-127.70816 169.14432-66.4064 12.48768-109.54752 30.64832-109.54752 52.21888 0 21.56544 44.84096 39.72608 115.2256 52.21888v15.89248c0 68.11136 19.8656 129.41312 53.92384 175.95904H67.36896l77.19424 126.00832c-57.32864 0-132.82304 78.8992-132.82304 147.57376l1.70496 206.60736c0 34.05824 26.6752 61.30176 61.30176 61.30176 0 0 557.99808 5.5552 589.48096 0-143.6928-71.66976-168.44288-187.12064-168.44288-261.53984 0-148.03968 105.81504-256.41472 230.19008-281.64608z m-367.43168 492.67712h-28.94848l-53.92384-397.32224 112.95744 98.75968-30.08512 298.56256z m123.74016 0h-28.94848l-30.65344-298.56256 113.52064-100.46464s-34.11968 123.33568-37.79584 148.26496c-8.1664 55.31648 3.79392 103.37792 3.79392 103.37792l-19.9168 147.38432z m68.11136-627.2v12.48768h-14.18752s-9.08288 77.19424-57.32864 77.19424c-48.81408 0-57.89184-77.19424-57.89184-77.19424h-32.34816c-7.37792 63.0016-39.7312 77.19424-57.32864 77.19424-43.136 0-55.6288-57.32864-57.32864-77.19424H259.2256v-24.97536h107.84256v12.48768h72.0896v-12.48768h107.84256v12.48768h3.39456z m0 0" fill="" p-id="1413"></path></svg>