<?xml version="1.0" standalone="no"?><!DOCTYPE svg PUBLIC "-//W3C//DTD SVG 1.1//EN" "http://www.w3.org/Graphics/SVG/1.1/DTD/svg11.dtd"><svg t="1588841874797" class="icon" viewBox="0 0 1024 1024" version="1.1" xmlns="http://www.w3.org/2000/svg" p-id="4355" xmlns:xlink="http://www.w3.org/1999/xlink" width="200" height="200"><defs><style type="text/css"></style></defs><path d="M182.653661 1024a171.138339 171.138339 0 0 1-59.352065-10.691233l-22.71887-8.490097 105.261477-106.912329-15.093505-57.229541-55.893137-15.250729L29.281636 932.73146l-8.490097-23.583602a177.427299 177.427299 0 0 1 39.856288-183.952096 170.745279 170.745279 0 0 1 162.884078-46.381084l151.249501-153.529249 22.404422 22.089974L232.886734 714.347305l-9.118993-2.830032a139.536312 139.536312 0 0 0-140.715492 35.847075 145.746661 145.746661 0 0 0-39.306004 125.779211l81.599263-82.935667 91.189928 24.841394L240.747934 907.182558 158.834223 990.511285a140.479656 140.479656 0 0 0 123.735299-39.777675 145.3536 145.3536 0 0 0 35.375403-143.388301l-2.672808-8.883156 171.767234-174.361431 22.404422 22.011362L350.804744 807.502533a176.877015 176.877015 0 0 1-45.594964 165.085215 171.688623 171.688623 0 0 1-122.556119 51.412252zM618.793075 535.11193l-22.404422-22.089974 200.224781-203.369261 9.118993 2.75142a139.4577 139.4577 0 0 0 140.63688-35.768463 145.825273 145.825273 0 0 0 39.306003-125.779211l-81.677875 82.857055-91.111316-24.841394-24.29111-92.05466 81.992323-83.328727a139.85076 139.85076 0 0 0-123.735298 39.777675 145.196376 145.196376 0 0 0-35.375403 143.388301l2.672808 8.883156-183.873484 186.624904L508.028757 390.072778l170.823891-173.575311a176.641179 176.641179 0 0 1 45.594964-165.085215 171.531399 171.531399 0 0 1 181.672347-40.485183l22.71887 8.490097L823.577352 125.779211l15.093506 57.229541 55.814524 15.172117 105.654538-106.912329 8.490096 23.583602A177.584523 177.584523 0 0 1 968.773729 298.725626a170.823891 170.823891 0 0 1-162.884078 46.459696z" p-id="4356"></path><path d="M823.262904 1012.758483a36.082911 36.082911 0 0 1-26.099186-11.005681L485.388499 685.182251a37.576539 37.576539 0 0 1 0-52.512821l-54.635344-55.500076L555.195961 450.604023l55.028405 55.500076a36.790419 36.790419 0 0 1 52.355597 0l311.775218 316.649164a37.576539 37.576539 0 0 1 0 52.434208l-124.757254 126.722555a36.475971 36.475971 0 0 1-26.335023 10.848457zM475.168938 576.854906l36.240136 36.711807a10.769845 10.769845 0 0 0 3.773376 2.594196l21.93275 8.804545-29.086443 29.79395a5.895901 5.895901 0 0 0 0 8.332873l311.775219 316.649163a4.952556 4.952556 0 0 0 3.694764 1.57224 5.267004 5.267004 0 0 0 3.851989-1.57224l124.678642-126.643943a5.895901 5.895901 0 0 0 0-8.332872L640.018317 528.115461a5.188392 5.188392 0 0 0-3.773377-1.57224 5.10978 5.10978 0 0 0-3.773376 1.57224L602.756225 558.145248l-8.883156-22.561646a11.005681 11.005681 0 0 0-2.594197-4.009212L555.195961 495.255643z" p-id="4357"></path><path d="M123.45882 160.667219l22.404422-22.058529L516.204406 514.672808l-22.404422 22.066391z" p-id="4358"></path><path d="M156.475863 191.891908L75.66272 183.559036 4.911914 70.750806l51.883924-52.90588 111.62905 72.244434 7.861201 81.363427z m-62.182097-38.048211l49.446952 5.109781-5.188392-50.626133L61.276723 58.172885l-16.508522 16.744357zM833.561077 875.030247a15.722401 15.722401 0 0 1-11.162905-4.638108L614.783862 659.554737a15.722401 15.722401 0 1 1 22.404422-22.089974l207.61431 210.837402a15.722401 15.722401 0 0 1-11.241517 26.728082zM471.812206 650.089851l154.944265-157.341931 22.404422 22.06639-154.944265 157.33407z" p-id="4359"></path></svg>